<?xml version="1.0" encoding="UTF-8" standalone="no"?>
<!-- Created with Inkscape (http://www.inkscape.org/) -->

<svg
   width="17.546732mm"
   height="6.8483791mm"
   viewBox="0 0 17.546732 6.8483791"
   version="1.1"
   id="svg1"
   xmlns="http://www.w3.org/2000/svg"
   xmlns:svg="http://www.w3.org/2000/svg">
  <defs
     id="defs1" />
  <g
     id="layer1"
     transform="translate(-102.91487,-103.89809)">
    <text
       xml:space="preserve"
       style="font-size:4.93889px;text-align:start;writing-mode:lr-tb;direction:ltr;text-anchor:start;fill:#999999;stroke-width:0.264583"
       x="102.73399"
       y="109.6106"
       id="text1"><tspan
         id="tspan1"
         style="font-style:normal;font-variant:normal;font-weight:600;font-stretch:normal;font-size:4.93889px;font-family:'Segoe UI';-inkscape-font-specification:'Segoe UI Semi-Bold';fill:#999999;stroke-width:0.264583"
         x="102.73399"
         y="109.6106">abapAI</tspan></text>
    <path
       style="fill:#999999;stroke-width:0.264583"
       id="path3"
       d="m 109.35487,99.483878 c -0.15346,0 -0.33512,-1.360646 -0.44363,-1.469164 -0.10852,-0.108519 -1.46917,-0.29017 -1.46917,-0.443639 0,-0.153468 1.36065,-0.335119 1.46917,-0.443638 0.10851,-0.108518 0.29017,-1.469164 0.44363,-1.469164 0.15347,0 0.33512,1.360646 0.44364,1.469164 0.10852,0.108519 1.46917,0.29017 1.46917,0.443638 0,0.153469 -1.36065,0.33512 -1.46917,0.443639 -0.10852,0.108518 -0.29017,1.469164 -0.44364,1.469164 z"
       transform="matrix(0.47587464,0,0,0.47587464,66.770463,58.805112)" />
    <path
       style="fill:#999999;stroke-width:0.264583"
       id="path3-5"
       d="m 109.35487,99.483878 c -0.15346,0 -0.33512,-1.360646 -0.44363,-1.469164 -0.10852,-0.108519 -1.46917,-0.29017 -1.46917,-0.443639 0,-0.153468 1.36065,-0.335119 1.46917,-0.443638 0.10851,-0.108518 0.29017,-1.469164 0.44363,-1.469164 0.15347,0 0.33512,1.360646 0.44364,1.469164 0.10852,0.108519 1.46917,0.29017 1.46917,0.443638 0,0.153469 -1.36065,0.33512 -1.46917,0.443639 -0.10852,0.108518 -0.29017,1.469164 -0.44364,1.469164 z"
       transform="matrix(0.29847837,0,0,0.29847837,87.250599,75.346153)" />
  </g>
</svg>
